<?xml version="1.0" encoding="utf-8"?>
<svg xmlns="http://www.w3.org/2000/svg" viewBox="0 0 500 500">
  <path d="M 41.741 189.018 C 185.546 189.018 185.546 189.018 212.272 214.424 C 230.669 233.829 236.665 257.72 236.026 283.706 C 235.12 304.874 227.355 324.388 211.741 339.018 C 209.405 340.938 207.003 342.746 204.553 344.518 C 203.971 344.94 203.389 345.361 202.789 345.796 C 199.24 348.259 195.898 349.857 191.741 351.018 C 196.046 359.055 200.578 366.934 205.241 374.768 C 205.946 375.956 206.652 377.144 207.358 378.332 C 214.067 389.613 220.896 400.818 227.741 412.018 C 232.361 419.608 236.981 427.198 241.741 435.018 C 242.236 360.768 242.236 360.768 242.741 285.018 C 243.401 284.688 244.061 284.358 244.741 284.018 C 245.214 284.901 245.687 285.784 246.174 286.694 C 250.631 294.852 255.46 302.107 261.741 309.018 C 262.211 309.538 262.682 310.057 263.166 310.592 C 271.14 319.287 279.727 325.832 289.741 332.018 C 290.731 332.678 291.721 333.338 292.741 334.018 C 293.102 336.423 293.102 336.423 293.081 339.478 C 293.081 340.619 293.081 341.76 293.081 342.935 C 293.065 344.172 293.05 345.408 293.034 346.682 C 293.03 347.944 293.025 349.207 293.021 350.507 C 293.007 353.865 292.98 357.221 292.947 360.578 C 292.916 364.004 292.902 367.429 292.887 370.854 C 292.854 377.576 292.804 384.297 292.741 391.018 C 293.289 391.003 293.837 390.987 294.402 390.971 C 300.129 390.816 305.854 390.71 311.582 390.634 C 313.717 390.598 315.852 390.551 317.987 390.49 C 321.063 390.405 324.136 390.365 327.213 390.334 C 328.162 390.298 329.11 390.262 330.087 390.225 C 335.183 390.222 338.003 390.683 341.703 394.335 C 342.742 395.541 343.755 396.769 344.741 398.018 C 345.781 399.221 346.823 400.423 347.866 401.624 C 348.829 402.814 349.787 404.008 350.741 405.206 C 351.242 405.808 351.744 406.411 352.26 407.032 C 353.678 408.811 353.678 408.811 355.741 412.018 C 355.247 415.912 353.408 417.769 350.741 420.581 C 346.457 425.194 342.447 429.969 338.491 434.866 C 336.741 437.018 336.741 437.018 335.741 438.018 C 333.799 438.121 331.853 438.153 329.908 438.159 C 328.641 438.164 327.373 438.17 326.067 438.176 C 324.649 438.177 323.231 438.178 321.814 438.179 C 320.331 438.184 318.848 438.189 317.365 438.194 C 313.325 438.207 309.286 438.214 305.247 438.218 C 302.726 438.221 300.204 438.225 297.683 438.23 C 289.802 438.243 281.92 438.253 274.039 438.257 C 264.928 438.261 255.818 438.279 246.707 438.308 C 239.673 438.33 232.64 438.34 225.606 438.341 C 221.402 438.342 217.197 438.348 212.992 438.366 C 209.037 438.382 205.083 438.384 201.128 438.376 C 199.675 438.375 198.222 438.379 196.769 438.389 C 194.788 438.402 192.808 438.394 190.827 438.386 C 189.163 438.388 189.163 438.388 187.465 438.39 C 184.741 438.018 184.741 438.018 182.954 436.648 C 181.297 434.421 179.985 432.101 178.659 429.663 C 178.064 428.578 177.469 427.492 176.856 426.375 C 176.542 425.798 176.228 425.221 175.905 424.626 C 174.234 421.553 172.544 418.491 170.854 415.428 C 170.51 414.804 170.165 414.179 169.81 413.536 C 167.615 409.566 165.377 405.624 163.096 401.702 C 162.521 400.713 161.946 399.724 161.354 398.705 C 160.191 396.74 159.006 394.789 157.8 392.851 C 154.694 387.791 152.342 383.142 150.628 377.444 C 148.274 370.547 146.266 364.838 139.741 361.018 C 124.84 357.148 107.522 359.407 92.741 360.018 C 92.741 385.758 92.741 411.498 92.741 438.018 C 75.911 438.018 59.081 438.018 41.741 438.018 C 41.741 355.848 41.741 273.678 41.741 189.018 Z M 92.741 236.018 C 92.718 246.04 92.7 256.063 92.689 266.085 C 92.684 270.738 92.677 275.391 92.665 280.045 C 92.655 284.532 92.649 289.018 92.646 293.505 C 92.644 295.221 92.64 296.937 92.635 298.652 C 92.628 301.047 92.627 303.442 92.627 305.836 C 92.624 306.553 92.62 307.269 92.616 308.007 C 92.338 311.294 92.338 311.294 93.741 314.018 C 95.196 314.116 96.656 314.146 98.114 314.147 C 99.047 314.151 99.979 314.154 100.94 314.157 C 101.96 314.155 102.979 314.153 104.03 314.151 C 105.08 314.152 106.131 314.153 107.214 314.154 C 109.451 314.154 111.689 314.153 113.927 314.148 C 117.303 314.143 120.678 314.148 124.053 314.155 C 152.507 315.283 152.507 315.283 176.643 302.385 C 184.722 293.268 185.558 281.709 184.936 270.055 C 184.012 260.414 178.442 251.153 171.366 244.706 C 160.98 236.484 150.038 235.714 137.174 235.823 C 135.9 235.826 134.625 235.828 133.312 235.831 C 129.953 235.841 126.595 235.859 123.236 235.881 C 119.797 235.901 116.358 235.91 112.919 235.92 C 106.193 235.942 99.467 235.976 92.741 236.018 Z" fill="#233F78" style="stroke-width: 1px;"/>
  <path d="M 303.741 189.018 C 320.529 188.898 320.529 188.898 327.794 188.872 C 332.713 188.854 337.632 188.833 342.551 188.792 C 346.526 188.759 350.5 188.741 354.475 188.733 C 355.977 188.728 357.478 188.717 358.98 188.701 C 382.029 188.459 405.271 193.024 422.553 209.331 C 435.184 222.638 440.535 241.068 440.085 259.159 C 438.444 277.578 430.707 291.989 416.741 304.018 C 414.122 305.927 411.6 307.479 408.741 309.018 C 409.673 309.468 410.605 309.918 411.565 310.381 C 429.494 319.31 440.635 329.888 447.796 348.975 C 453.148 366.206 450.533 386.883 442.616 402.831 C 433.462 418.581 419.019 429.474 401.448 434.245 C 389.068 437.349 377.458 438.162 364.678 438.081 C 363.322 438.076 361.966 438.071 360.61 438.067 C 357.32 438.055 354.031 438.039 350.741 438.018 C 352.37 434.582 354.26 432.181 356.866 429.393 C 361.404 424.45 365.612 419.305 369.741 414.018 C 366.643 408.326 362.358 403.581 358.215 398.637 C 357.642 397.944 357.069 397.251 356.479 396.538 C 355.954 395.91 355.428 395.282 354.887 394.635 C 353.741 393.018 353.741 393.018 353.741 391.018 C 354.715 391.004 354.715 391.004 355.709 390.99 C 358.7 390.936 361.689 390.852 364.678 390.768 C 365.7 390.754 366.722 390.74 367.774 390.725 C 375.888 390.466 382.152 388.889 388.553 383.768 C 394.079 376.822 396.314 369.9 395.741 361.018 C 394.404 352.926 391.735 346.704 385.741 341.018 C 377.464 335.649 369.181 335.249 359.553 335.206 C 358.206 335.182 356.859 335.157 355.512 335.129 C 352.255 335.071 348.999 335.034 345.741 335.018 C 345.741 330.993 347.215 329.927 349.803 326.893 C 350.617 325.919 351.43 324.944 352.268 323.94 C 353.816 322.111 355.37 320.287 356.932 318.471 C 357.57 317.703 358.208 316.935 358.866 316.143 C 359.446 315.465 360.026 314.787 360.624 314.088 C 361.94 312.056 361.94 312.056 361.69 309.604 C 360.479 306.304 358.715 304.183 356.428 301.518 C 355.648 300.6 354.869 299.682 354.065 298.737 C 353.298 297.84 352.531 296.942 351.741 296.018 C 347.741 291.275 347.741 291.275 347.741 289.018 C 348.294 289.014 348.848 289.01 349.418 289.006 C 366.158 288.992 366.158 288.992 380.178 280.706 C 385.118 272.21 386.312 263.837 384.085 254.17 C 381.744 247.482 378.115 243.387 371.909 240.026 C 366.609 237.601 361.62 236.901 355.849 236.813 C 354.688 236.793 353.527 236.773 352.331 236.752 C 351.088 236.736 349.846 236.719 348.565 236.702 C 347.285 236.681 346.004 236.66 344.685 236.639 C 341.294 236.584 337.902 236.534 334.511 236.486 C 331.045 236.435 327.58 236.38 324.114 236.325 C 317.323 236.217 310.532 236.118 303.741 236.018 C 303.741 220.508 303.741 204.998 303.741 189.018 Z" fill="#43CAB2" style="stroke-width: 1px;"/>
  <path d="M 218.741 51.018 C 222.112 52.261 225.174 53.95 228.303 55.706 C 229.212 56.198 230.12 56.691 231.056 57.198 C 233.963 58.784 236.854 60.396 239.741 62.018 C 240.675 62.542 241.609 63.066 242.571 63.605 C 246.366 65.74 250.157 67.882 253.94 70.038 C 260.825 73.959 267.764 77.765 274.741 81.518 C 285.661 87.395 296.466 93.462 307.238 99.605 C 310.438 101.412 313.665 103.167 316.899 104.909 C 320.258 106.931 322.18 109.127 323.299 112.901 C 324.197 117.771 323.595 120.832 320.741 125.018 C 317.485 127.84 314.151 130.047 310.381 132.12 C 308.845 132.97 308.845 132.97 307.278 133.838 C 305.651 134.732 305.651 134.732 303.991 135.643 C 296.691 139.688 289.408 143.743 282.241 148.018 C 274.243 152.78 266.117 157.304 257.984 161.831 C 251.787 165.288 245.646 168.818 239.553 172.456 C 218.94 184.636 218.94 184.636 213.178 184.206 C 209.518 182.941 207.397 181.831 204.741 179.018 C 203.111 175.61 202.489 172.886 202.48 169.123 C 202.473 168.164 202.466 167.205 202.459 166.217 C 202.461 165.177 202.464 164.137 202.466 163.065 C 202.461 161.96 202.456 160.856 202.451 159.718 C 202.437 156.068 202.438 152.418 202.44 148.768 C 202.436 146.231 202.432 143.695 202.427 141.158 C 202.42 135.842 202.42 130.526 202.425 125.209 C 202.431 119.069 202.419 112.93 202.398 106.79 C 202.378 100.875 202.375 94.961 202.378 89.047 C 202.378 86.533 202.373 84.02 202.362 81.506 C 202.35 77.994 202.357 74.483 202.368 70.971 C 202.361 69.931 202.353 68.891 202.345 67.819 C 202.394 61.154 203.259 57.642 207.928 52.706 C 211.596 50.505 214.609 50.389 218.741 51.018 Z" fill="#42C8B0" style="stroke-width: 1px;"/>
  <path d="M 292.741 155.018 C 292.746 156.581 292.746 156.581 292.752 158.175 C 292.789 168.06 292.847 177.944 292.925 187.828 C 292.964 192.908 292.996 197.988 293.012 203.068 C 293.027 207.983 293.062 212.898 293.109 217.812 C 293.124 219.675 293.132 221.537 293.133 223.4 C 293.149 241.636 295.294 258.793 307.741 273.018 C 308.338 273.728 322.537 283.678 326.616 285.018 C 334.262 288.002 337.999 293.907 342.57 300.393 C 344.764 303.438 347.263 306.205 349.741 309.018 C 348.323 313.372 346.199 315.974 343.053 319.268 C 339.71 322.783 336.924 326.196 334.303 330.268 C 332.393 332.735 331.496 333.852 328.428 334.526 C 325.373 334.371 322.702 333.795 319.741 333.018 C 318.484 332.698 317.227 332.379 315.932 332.049 C 302.637 328.395 290.996 322.304 280.741 313.018 C 280.171 312.502 279.601 311.987 279.013 311.456 C 265.129 298.722 255.76 284.868 249.741 267.018 C 249.352 265.875 248.962 264.731 248.561 263.553 C 246.345 256.235 245.322 249.134 244.706 241.538 C 244.624 240.54 244.541 239.542 244.457 238.513 C 244.205 235.349 243.969 232.184 243.741 229.018 C 243.667 228.003 243.594 226.989 243.518 225.943 C 243.1 219.88 242.814 213.827 242.656 207.752 C 242.587 205.696 242.483 203.642 242.349 201.59 C 241.283 184.983 241.283 184.983 245.257 180.189 C 249.25 176.914 253.761 174.894 258.516 172.957 C 261.75 171.592 264.666 169.863 267.694 168.084 C 269.792 166.915 271.891 165.747 273.991 164.581 C 276.121 163.395 278.252 162.209 280.381 161.022 C 281.751 160.261 281.751 160.261 283.148 159.485 C 284.938 158.472 286.705 157.418 288.451 156.33 C 290.741 155.018 290.741 155.018 292.741 155.018 Z" fill="#42CAB0" style="stroke-width: 1px;"/>
  <path d="M 367.741 416.018 C 368.071 417.008 368.401 417.998 368.741 419.018 C 367.526 421.061 367.526 421.061 365.803 423.206 C 365.237 423.921 364.672 424.636 364.089 425.374 C 363.644 425.916 363.199 426.459 362.741 427.018 C 361.751 426.688 360.761 426.358 359.741 426.018 C 362.381 422.718 365.021 419.418 367.741 416.018 Z" fill="#4CD5B9" style="stroke-width: 1px;"/>
</svg>